<svg id="visual" viewBox="0 0 900 100" width="900" height="100" xmlns="http://www.w3.org/2000/svg" xmlns:xlink="http://www.w3.org/1999/xlink" version="1.1"><rect x="0" y="0" width="900" height="100" fill="#ffffff"></rect><path d="M0 24L29 38L58 49L87 48L116 57L145 50L174 29L203 47L232 0L261 61L290 63L319 60L348 14L377 60L406 11L435 3L465 20L494 0L523 19L552 59L581 60L610 4L639 20L668 14L697 27L726 31L755 65L784 18L813 37L842 23L871 27L900 10L900 0L871 0L842 0L813 0L784 0L755 0L726 0L697 0L668 0L639 0L610 0L581 0L552 0L523 0L494 0L465 0L435 0L406 0L377 0L348 0L319 0L290 0L261 0L232 0L203 0L174 0L145 0L116 0L87 0L58 0L29 0L0 0Z" fill="#f5f5f5" stroke-linecap="square" stroke-linejoin="bevel"></path></svg>