<svg id="visual" viewBox="0 0 900 100" width="900" height="100" xmlns="http://www.w3.org/2000/svg" xmlns:xlink="http://www.w3.org/1999/xlink" version="1.1"><rect x="0" y="0" width="900" height="100" fill="#f5f5f5"></rect><path d="M0 16L5.5 16.8C11 17.7 22 19.3 33.2 26.2C44.3 33 55.7 45 66.8 46.3C78 47.7 89 38.3 100 30.8C111 23.3 122 17.7 133.2 20C144.3 22.3 155.7 32.7 166.8 33C178 33.3 189 23.7 200 23.8C211 24 222 34 233.2 41.3C244.3 48.7 255.7 53.3 266.8 51.7C278 50 289 42 300 39.2C311 36.3 322 38.7 333.2 39.5C344.3 40.3 355.7 39.7 366.8 37.2C378 34.7 389 30.3 400 31.5C411 32.7 422 39.3 433.2 37.7C444.3 36 455.7 26 466.8 27.2C478 28.3 489 40.7 500 46C511 51.3 522 49.7 533.2 44C544.3 38.3 555.7 28.7 566.8 23C578 17.3 589 15.7 600 19.2C611 22.7 622 31.3 633.2 31.2C644.3 31 655.7 22 666.8 22C678 22 689 31 700 32.8C711 34.7 722 29.3 733.2 29C744.3 28.7 755.7 33.3 766.8 36.2C778 39 789 40 800 39.2C811 38.3 822 35.7 833.2 30.5C844.3 25.3 855.7 17.7 866.8 16.2C878 14.7 889 19.3 894.5 21.7L900 24L900 0L894.5 0C889 0 878 0 866.8 0C855.7 0 844.3 0 833.2 0C822 0 811 0 800 0C789 0 778 0 766.8 0C755.7 0 744.3 0 733.2 0C722 0 711 0 700 0C689 0 678 0 666.8 0C655.7 0 644.3 0 633.2 0C622 0 611 0 600 0C589 0 578 0 566.8 0C555.7 0 544.3 0 533.2 0C522 0 511 0 500 0C489 0 478 0 466.8 0C455.7 0 444.3 0 433.2 0C422 0 411 0 400 0C389 0 378 0 366.8 0C355.7 0 344.3 0 333.2 0C322 0 311 0 300 0C289 0 278 0 266.8 0C255.7 0 244.3 0 233.2 0C222 0 211 0 200 0C189 0 178 0 166.8 0C155.7 0 144.3 0 133.2 0C122 0 111 0 100 0C89 0 78 0 66.8 0C55.7 0 44.3 0 33.2 0C22 0 11 0 5.5 0L0 0Z" fill="#ffffff" stroke-linecap="round" stroke-linejoin="miter"></path></svg>