<svg id="visual" viewBox="0 0 900 100" width="900" height="100" xmlns="http://www.w3.org/2000/svg" xmlns:xlink="http://www.w3.org/1999/xlink" version="1.1"><rect x="0" y="0" width="900" height="100" fill="#f5f5f5"></rect><path d="M0 43L9.3 40.2C18.7 37.3 37.3 31.7 56.2 29.7C75 27.7 94 29.3 112.8 30.5C131.7 31.7 150.3 32.3 169 33.3C187.7 34.3 206.3 35.7 225 37C243.7 38.3 262.3 39.7 281.2 38.8C300 38 319 35 337.8 34.7C356.7 34.3 375.3 36.7 394 36.5C412.7 36.3 431.3 33.7 450 34.2C468.7 34.7 487.3 38.3 506.2 39.8C525 41.3 544 40.7 562.8 40.2C581.7 39.7 600.3 39.3 619 37.5C637.7 35.7 656.3 32.3 675 30C693.7 27.7 712.3 26.3 731.2 28.8C750 31.3 769 37.7 787.8 37.8C806.7 38 825.3 32 844 29.7C862.7 27.3 881.3 28.7 890.7 29.3L900 30L900 0L890.7 0C881.3 0 862.7 0 844 0C825.3 0 806.7 0 787.8 0C769 0 750 0 731.2 0C712.3 0 693.7 0 675 0C656.3 0 637.7 0 619 0C600.3 0 581.7 0 562.8 0C544 0 525 0 506.2 0C487.3 0 468.7 0 450 0C431.3 0 412.7 0 394 0C375.3 0 356.7 0 337.8 0C319 0 300 0 281.2 0C262.3 0 243.7 0 225 0C206.3 0 187.7 0 169 0C150.3 0 131.7 0 112.8 0C94 0 75 0 56.2 0C37.3 0 18.7 0 9.3 0L0 0Z" fill="#ffffff" stroke-linecap="round" stroke-linejoin="miter"></path></svg>